<svg width="116" height="199" viewBox="0 0 116 199" fill="none" xmlns="http://www.w3.org/2000/svg">
<path d="M33.8542 0.502987C13.5283 33.6391 -3.97306 70.0699 2.16535 109.856C3.86688 120.884 10.0846 138.786 22.2238 142.832C32.7732 146.348 47.3603 140.532 56.3068 135.337C65.0515 130.259 73.4333 121.988 75.8639 111.995C76.9666 107.461 76.1519 102.442 70.7244 103.323C56.3313 105.657 51.4081 126.992 59.3405 137.478C71.1552 153.096 93.1352 160.81 101.955 178.448C102.966 180.469 109.828 190.572 105.81 192.581C101.664 194.654 95.6015 189.246 91.6766 188.405C85.6766 187.12 103.208 192.863 108.344 196.221C112.395 198.87 111.926 199.79 111.234 193.794C110.525 187.644 110.825 177.929 115.445 173.308" stroke="#979797" stroke-linecap="round"/>
</svg>
