<svg width="20" height="20" viewBox="0 0 20 20" fill="none" xmlns="http://www.w3.org/2000/svg">
<path d="M6.66663 2.49984H5.49996C4.08575 2.49984 3.37864 2.49984 2.9393 2.93918C2.49996 3.37852 2.49996 4.08562 2.49996 5.49984V6.6665" stroke="white" stroke-width="2" stroke-linecap="round"/>
<path d="M6.66663 17.5002H5.49996C4.08575 17.5002 3.37864 17.5002 2.9393 17.0608C2.49996 16.6215 2.49996 15.9144 2.49996 14.5002V13.3335" stroke="white" stroke-width="2" stroke-linecap="round"/>
<path d="M13.3334 2.49984H14.5C15.9143 2.49984 16.6214 2.49984 17.0607 2.93918C17.5 3.37852 17.5 4.08562 17.5 5.49984V6.6665" stroke="white" stroke-width="2" stroke-linecap="round"/>
<path d="M13.3334 17.5002H14.5C15.9143 17.5002 16.6214 17.5002 17.0607 17.0608C17.5 16.6215 17.5 15.9144 17.5 14.5002V13.3335" stroke="white" stroke-width="2" stroke-linecap="round"/>
</svg>
