<svg width="221" height="216" viewBox="0 0 221 216" fill="none" xmlns="http://www.w3.org/2000/svg">
<mask id="path-1-inside-1_84_818" fill="white">
<path d="M14.789 174.131H22.8938L15.4493 171.034C13.7614 170.343 12.2265 169.325 10.9326 168.04C9.63876 166.754 8.61129 165.225 7.90913 163.542C7.20698 161.859 6.84394 160.053 6.8408 158.229C6.83767 156.405 7.19452 154.598 7.89088 152.912L25.6714 109.884C27.0896 106.462 29.8082 103.744 33.2298 102.326C36.6229 100.982 40.4003 100.982 43.7934 102.326L51.0103 105.331L43.1332 97.5447C41.8347 96.257 40.804 94.725 40.1007 93.037C39.3973 91.3489 39.0352 89.5383 39.0352 87.7096C39.0352 85.8809 39.3973 84.0703 40.1007 82.3823C40.804 80.6943 41.8347 79.1622 43.1332 77.8746L75.9166 44.8634C78.532 42.3016 82.0451 40.8637 85.7061 40.8565H85.8199C87.6335 40.8341 89.4331 41.1773 91.1111 41.8657C92.7892 42.5542 94.3113 43.5737 95.5866 44.8634L105.49 54.744L100.254 42.177C99.5438 40.4906 99.178 38.6794 99.178 36.8497C99.178 35.0199 99.5438 33.2087 100.254 31.5223C100.944 29.8319 101.97 28.2988 103.269 27.0155C104.568 25.7321 106.114 24.725 107.812 24.055L150.841 6.16066C152.527 5.46579 154.333 5.11012 156.157 5.11397C157.98 5.11783 159.785 5.48115 161.468 6.18315C163.152 6.88514 164.68 7.91204 165.966 9.20512C167.252 10.4982 168.27 12.0321 168.963 13.7191L173.857 25.3982V14.2882C173.859 12.4692 174.22 10.6683 174.919 8.98912C175.619 7.30994 176.643 5.78553 177.933 4.5035C179.224 3.22147 180.755 2.20709 182.439 1.51863C184.123 0.830182 185.926 0.481234 187.745 0.491842H234.325C237.983 0.493249 241.492 1.94725 244.079 4.53426C246.666 7.12128 248.12 10.6296 248.121 14.2882V207.939C248.099 211.589 246.638 215.083 244.055 217.662C241.472 220.241 237.975 221.697 234.325 221.712H222.213V234.621C222.205 238.306 220.736 241.837 218.128 244.44C215.521 247.043 211.987 248.506 208.303 248.508H14.789C11.1044 248.506 7.57097 247.043 4.96342 244.44C2.35588 241.837 0.886983 238.306 0.878784 234.621V188.041C0.882226 184.353 2.34888 180.817 4.9568 178.209C7.56472 175.601 11.1008 174.134 14.789 174.131ZM41.0158 109.338C40.2441 109 39.4109 108.825 38.5685 108.825C37.7261 108.825 36.8928 109 36.1211 109.338C34.5742 109.997 33.3423 111.229 32.6834 112.775L14.789 155.804C14.1752 157.368 14.1903 159.109 14.8311 160.662C15.4719 162.215 16.6887 163.46 18.2268 164.136L42.564 174.131H56.9067L77.5785 124.454L41.0158 109.338ZM132.832 139.23L156.168 115.781L123.726 83.4296L87.0266 120.22L132.832 139.23ZM166.527 115.439L197.648 102.553L180.073 60.0942L131.284 80.3106L166.527 115.439ZM84.4767 127.346L65.0343 174.131H114.824L126.936 144.899L84.4767 127.346ZM90.2594 50.1907C89.0514 49.0189 87.4346 48.3635 85.7517 48.3635C84.0687 48.3635 82.4519 49.0189 81.2439 50.1907L48.4604 83.2019C47.8677 83.7935 47.3975 84.4961 47.0767 85.2696C46.7559 86.0431 46.5908 86.8723 46.5908 87.7096C46.5908 88.547 46.7559 89.3762 47.0767 90.1497C47.3975 90.9232 47.8677 91.6258 48.4604 92.2174L69.2461 112.889L79.4681 117.101L118.376 78.1023L90.2594 50.1907ZM162.064 16.6104C161.399 15.0629 160.155 13.837 158.598 13.1946C157.041 12.5522 155.295 12.5443 153.732 13.1727L110.704 30.9532C109.155 31.6212 107.924 32.8607 107.266 34.4137C106.939 35.1842 106.771 36.0127 106.771 36.8497C106.771 37.6866 106.939 38.5151 107.266 39.2856L119.264 68.4265L125.502 74.5278L177.181 53.1958L162.064 16.6104ZM240.654 14.2882C240.639 12.6121 239.968 11.0086 238.785 9.82124C237.602 8.6339 236.001 7.95729 234.325 7.93643H187.745C186.051 7.93369 184.424 8.59913 183.218 9.78833C182.012 10.9775 181.323 12.5945 181.302 14.2882V43.5202L185.536 53.7423L185.628 53.8561H240.654V14.2882ZM240.654 61.4145H188.747L207.756 107.334H240.654V61.4145ZM234.325 214.268C235.997 214.248 237.596 213.575 238.778 212.392C239.961 211.21 240.634 209.611 240.654 207.939V114.893H210.875L229.885 160.676C230.073 161.136 230.168 161.628 230.163 162.125C230.158 162.622 230.054 163.113 229.857 163.569C229.659 164.025 229.373 164.437 229.014 164.78C228.656 165.124 228.232 165.393 227.768 165.57C227.316 165.769 226.829 165.875 226.336 165.881C225.842 165.888 225.352 165.794 224.896 165.608C224.439 165.421 224.024 165.144 223.677 164.793C223.329 164.443 223.056 164.026 222.873 163.567L200.54 109.429L172.287 121.222L212.651 161.245C213.341 161.96 213.727 162.915 213.727 163.909C213.727 164.902 213.341 165.857 212.651 166.572C211.941 167.273 210.985 167.665 209.987 167.665C208.99 167.665 208.033 167.273 207.324 166.572L161.518 121.108L140.391 142.349L189.976 162.907C190.44 163.085 190.864 163.353 191.222 163.697C191.581 164.041 191.867 164.453 192.064 164.909C192.262 165.365 192.366 165.855 192.371 166.352C192.376 166.849 192.281 167.342 192.093 167.802C191.897 168.263 191.612 168.681 191.254 169.032C190.895 169.383 190.471 169.659 190.006 169.845C189.54 170.032 189.042 170.124 188.541 170.117C188.04 170.11 187.545 170.004 187.085 169.805L133.834 147.79L122.929 174.13H208.303C211.991 174.134 215.527 175.601 218.135 178.209C220.743 180.816 222.21 184.353 222.213 188.041V201.04L227.54 195.713C228.156 195.105 228.633 194.371 228.939 193.562C229.246 192.752 229.374 191.887 229.316 191.023C229.301 190.528 229.383 190.034 229.559 189.571C229.736 189.108 230.002 188.684 230.343 188.325C230.683 187.965 231.092 187.676 231.545 187.475C231.998 187.274 232.486 187.164 232.982 187.153C233.481 187.123 233.982 187.195 234.453 187.365C234.924 187.536 235.356 187.801 235.72 188.144C236.085 188.488 236.375 188.902 236.574 189.362C236.773 189.822 236.875 190.317 236.875 190.818C236.925 192.702 236.598 194.576 235.914 196.331C235.23 198.087 234.202 199.688 232.89 201.04L222.213 211.718V214.268L234.325 214.268ZM168.735 240.95H208.303C209.138 240.962 209.968 240.806 210.742 240.493C211.517 240.179 212.221 239.714 212.812 239.124C213.404 238.534 213.872 237.832 214.189 237.058C214.505 236.285 214.663 235.456 214.655 234.621V188.041C214.656 187.206 214.493 186.38 214.174 185.608C213.856 184.837 213.388 184.136 212.798 183.546C212.208 182.956 211.507 182.488 210.735 182.169C209.964 181.851 209.137 181.687 208.303 181.689H168.735V240.95ZM115.28 240.95H161.177V181.689H115.28V240.95ZM61.8015 240.95H107.812V181.689H61.8015V240.95ZM8.32338 234.621C8.32743 235.462 8.49843 236.295 8.82649 237.07C9.15455 237.845 9.63314 238.547 10.2345 239.135C10.8359 239.724 11.5482 240.188 12.33 240.499C13.1118 240.811 13.9476 240.964 14.789 240.95H54.3569V181.689H14.789C13.0916 181.682 11.4599 182.345 10.2491 183.534C9.03818 184.724 8.34609 186.344 8.32338 188.041V234.621ZM190.978 225.15C188.253 225.15 185.59 224.342 183.325 222.829C181.06 221.315 179.295 219.164 178.252 216.647C177.21 214.131 176.937 211.361 177.469 208.689C178 206.017 179.312 203.563 181.238 201.637C183.164 199.711 185.619 198.399 188.291 197.867C190.962 197.336 193.732 197.609 196.249 198.651C198.765 199.694 200.917 201.459 202.43 203.724C203.943 205.989 204.751 208.652 204.751 211.376C204.749 215.029 203.297 218.531 200.714 221.113C198.132 223.696 194.63 225.148 190.978 225.15ZM190.978 205.047C189.302 205.062 187.698 205.733 186.511 206.916C185.323 208.099 184.647 209.7 184.626 211.376C184.651 213.041 185.333 214.627 186.523 215.791C187.712 216.955 189.313 217.602 190.978 217.592C191.794 217.592 192.603 217.432 193.357 217.12C194.112 216.808 194.797 216.35 195.374 215.773C195.952 215.196 196.409 214.51 196.721 213.756C197.034 213.001 197.194 212.193 197.193 211.376C197.199 209.716 196.55 208.119 195.386 206.935C194.222 205.75 192.638 205.071 190.978 205.047Z"/>
</mask>
<path d="M14.789 174.131H22.8938L15.4493 171.034C13.7614 170.343 12.2265 169.325 10.9326 168.04C9.63876 166.754 8.61129 165.225 7.90913 163.542C7.20698 161.859 6.84394 160.053 6.8408 158.229C6.83767 156.405 7.19452 154.598 7.89088 152.912L25.6714 109.884C27.0896 106.462 29.8082 103.744 33.2298 102.326C36.6229 100.982 40.4003 100.982 43.7934 102.326L51.0103 105.331L43.1332 97.5447C41.8347 96.257 40.804 94.725 40.1007 93.037C39.3973 91.3489 39.0352 89.5383 39.0352 87.7096C39.0352 85.8809 39.3973 84.0703 40.1007 82.3823C40.804 80.6943 41.8347 79.1622 43.1332 77.8746L75.9166 44.8634C78.532 42.3016 82.0451 40.8637 85.7061 40.8565H85.8199C87.6335 40.8341 89.4331 41.1773 91.1111 41.8657C92.7892 42.5542 94.3113 43.5737 95.5866 44.8634L105.49 54.744L100.254 42.177C99.5438 40.4906 99.178 38.6794 99.178 36.8497C99.178 35.0199 99.5438 33.2087 100.254 31.5223C100.944 29.8319 101.97 28.2988 103.269 27.0155C104.568 25.7321 106.114 24.725 107.812 24.055L150.841 6.16066C152.527 5.46579 154.333 5.11012 156.157 5.11397C157.98 5.11783 159.785 5.48115 161.468 6.18315C163.152 6.88514 164.68 7.91204 165.966 9.20512C167.252 10.4982 168.27 12.0321 168.963 13.7191L173.857 25.3982V14.2882C173.859 12.4692 174.22 10.6683 174.919 8.98912C175.619 7.30994 176.643 5.78553 177.933 4.5035C179.224 3.22147 180.755 2.20709 182.439 1.51863C184.123 0.830182 185.926 0.481234 187.745 0.491842H234.325C237.983 0.493249 241.492 1.94725 244.079 4.53426C246.666 7.12128 248.12 10.6296 248.121 14.2882V207.939C248.099 211.589 246.638 215.083 244.055 217.662C241.472 220.241 237.975 221.697 234.325 221.712H222.213V234.621C222.205 238.306 220.736 241.837 218.128 244.44C215.521 247.043 211.987 248.506 208.303 248.508H14.789C11.1044 248.506 7.57097 247.043 4.96342 244.44C2.35588 241.837 0.886983 238.306 0.878784 234.621V188.041C0.882226 184.353 2.34888 180.817 4.9568 178.209C7.56472 175.601 11.1008 174.134 14.789 174.131ZM41.0158 109.338C40.2441 109 39.4109 108.825 38.5685 108.825C37.7261 108.825 36.8928 109 36.1211 109.338C34.5742 109.997 33.3423 111.229 32.6834 112.775L14.789 155.804C14.1752 157.368 14.1903 159.109 14.8311 160.662C15.4719 162.215 16.6887 163.46 18.2268 164.136L42.564 174.131H56.9067L77.5785 124.454L41.0158 109.338ZM132.832 139.23L156.168 115.781L123.726 83.4296L87.0266 120.22L132.832 139.23ZM166.527 115.439L197.648 102.553L180.073 60.0942L131.284 80.3106L166.527 115.439ZM84.4767 127.346L65.0343 174.131H114.824L126.936 144.899L84.4767 127.346ZM90.2594 50.1907C89.0514 49.0189 87.4346 48.3635 85.7517 48.3635C84.0687 48.3635 82.4519 49.0189 81.2439 50.1907L48.4604 83.2019C47.8677 83.7935 47.3975 84.4961 47.0767 85.2696C46.7559 86.0431 46.5908 86.8723 46.5908 87.7096C46.5908 88.547 46.7559 89.3762 47.0767 90.1497C47.3975 90.9232 47.8677 91.6258 48.4604 92.2174L69.2461 112.889L79.4681 117.101L118.376 78.1023L90.2594 50.1907ZM162.064 16.6104C161.399 15.0629 160.155 13.837 158.598 13.1946C157.041 12.5522 155.295 12.5443 153.732 13.1727L110.704 30.9532C109.155 31.6212 107.924 32.8607 107.266 34.4137C106.939 35.1842 106.771 36.0127 106.771 36.8497C106.771 37.6866 106.939 38.5151 107.266 39.2856L119.264 68.4265L125.502 74.5278L177.181 53.1958L162.064 16.6104ZM240.654 14.2882C240.639 12.6121 239.968 11.0086 238.785 9.82124C237.602 8.6339 236.001 7.95729 234.325 7.93643H187.745C186.051 7.93369 184.424 8.59913 183.218 9.78833C182.012 10.9775 181.323 12.5945 181.302 14.2882V43.5202L185.536 53.7423L185.628 53.8561H240.654V14.2882ZM240.654 61.4145H188.747L207.756 107.334H240.654V61.4145ZM234.325 214.268C235.997 214.248 237.596 213.575 238.778 212.392C239.961 211.21 240.634 209.611 240.654 207.939V114.893H210.875L229.885 160.676C230.073 161.136 230.168 161.628 230.163 162.125C230.158 162.622 230.054 163.113 229.857 163.569C229.659 164.025 229.373 164.437 229.014 164.78C228.656 165.124 228.232 165.393 227.768 165.57C227.316 165.769 226.829 165.875 226.336 165.881C225.842 165.888 225.352 165.794 224.896 165.608C224.439 165.421 224.024 165.144 223.677 164.793C223.329 164.443 223.056 164.026 222.873 163.567L200.54 109.429L172.287 121.222L212.651 161.245C213.341 161.96 213.727 162.915 213.727 163.909C213.727 164.902 213.341 165.857 212.651 166.572C211.941 167.273 210.985 167.665 209.987 167.665C208.99 167.665 208.033 167.273 207.324 166.572L161.518 121.108L140.391 142.349L189.976 162.907C190.44 163.085 190.864 163.353 191.222 163.697C191.581 164.041 191.867 164.453 192.064 164.909C192.262 165.365 192.366 165.855 192.371 166.352C192.376 166.849 192.281 167.342 192.093 167.802C191.897 168.263 191.612 168.681 191.254 169.032C190.895 169.383 190.471 169.659 190.006 169.845C189.54 170.032 189.042 170.124 188.541 170.117C188.04 170.11 187.545 170.004 187.085 169.805L133.834 147.79L122.929 174.13H208.303C211.991 174.134 215.527 175.601 218.135 178.209C220.743 180.816 222.21 184.353 222.213 188.041V201.04L227.54 195.713C228.156 195.105 228.633 194.371 228.939 193.562C229.246 192.752 229.374 191.887 229.316 191.023C229.301 190.528 229.383 190.034 229.559 189.571C229.736 189.108 230.002 188.684 230.343 188.325C230.683 187.965 231.092 187.676 231.545 187.475C231.998 187.274 232.486 187.164 232.982 187.153C233.481 187.123 233.982 187.195 234.453 187.365C234.924 187.536 235.356 187.801 235.72 188.144C236.085 188.488 236.375 188.902 236.574 189.362C236.773 189.822 236.875 190.317 236.875 190.818C236.925 192.702 236.598 194.576 235.914 196.331C235.23 198.087 234.202 199.688 232.89 201.04L222.213 211.718V214.268L234.325 214.268ZM168.735 240.95H208.303C209.138 240.962 209.968 240.806 210.742 240.493C211.517 240.179 212.221 239.714 212.812 239.124C213.404 238.534 213.872 237.832 214.189 237.058C214.505 236.285 214.663 235.456 214.655 234.621V188.041C214.656 187.206 214.493 186.38 214.174 185.608C213.856 184.837 213.388 184.136 212.798 183.546C212.208 182.956 211.507 182.488 210.735 182.169C209.964 181.851 209.137 181.687 208.303 181.689H168.735V240.95ZM115.28 240.95H161.177V181.689H115.28V240.95ZM61.8015 240.95H107.812V181.689H61.8015V240.95ZM8.32338 234.621C8.32743 235.462 8.49843 236.295 8.82649 237.07C9.15455 237.845 9.63314 238.547 10.2345 239.135C10.8359 239.724 11.5482 240.188 12.33 240.499C13.1118 240.811 13.9476 240.964 14.789 240.95H54.3569V181.689H14.789C13.0916 181.682 11.4599 182.345 10.2491 183.534C9.03818 184.724 8.34609 186.344 8.32338 188.041V234.621ZM190.978 225.15C188.253 225.15 185.59 224.342 183.325 222.829C181.06 221.315 179.295 219.164 178.252 216.647C177.21 214.131 176.937 211.361 177.469 208.689C178 206.017 179.312 203.563 181.238 201.637C183.164 199.711 185.619 198.399 188.291 197.867C190.962 197.336 193.732 197.609 196.249 198.651C198.765 199.694 200.917 201.459 202.43 203.724C203.943 205.989 204.751 208.652 204.751 211.376C204.749 215.029 203.297 218.531 200.714 221.113C198.132 223.696 194.63 225.148 190.978 225.15ZM190.978 205.047C189.302 205.062 187.698 205.733 186.511 206.916C185.323 208.099 184.647 209.7 184.626 211.376C184.651 213.041 185.333 214.627 186.523 215.791C187.712 216.955 189.313 217.602 190.978 217.592C191.794 217.592 192.603 217.432 193.357 217.12C194.112 216.808 194.797 216.35 195.374 215.773C195.952 215.196 196.409 214.51 196.721 213.756C197.034 213.001 197.194 212.193 197.193 211.376C197.199 209.716 196.55 208.119 195.386 206.935C194.222 205.75 192.638 205.071 190.978 205.047Z" stroke="#979797" stroke-width="4" mask="url(#path-1-inside-1_84_818)"/>
</svg>
